name Run_30002_GRF.mot
datacolumns 19
datarows 23
range 1.954 1.976
endheader
time	     ground_force_vx	     ground_force_vy	     ground_force_vz	     ground_force_px	     ground_force_py	     ground_force_pz	   l_ground_force_vx	   l_ground_force_vy	   l_ground_force_vz	   l_ground_force_px	   l_ground_force_py	   l_ground_force_pz	     ground_torque_x	     ground_torque_y	     ground_torque_z	   l_ground_torque_x	   l_ground_torque_y	   l_ground_torque_z	
1.954	          0.00000000	          0.00000000	          0.00000000	          0.00000000	          0.00000000	          0.00000000	          0.00000000	          0.00000000	          0.00000000	          0.00000000	          0.00000000	          0.00000000	          0.00000000	          0.00000000	          0.00000000	          0.00000000	          0.00000000	          0.00000000	
1.955	         -2.65793100	         10.84122900	         -4.90490100	          1.07099700	          0.00000000	         -0.29976500	          0.00000000	          0.00000000	          0.00000000	          0.00000000	          0.00000000	          0.00000000	         -0.00000000	          1.18220300	         -0.00000000	          0.00000000	          0.00000000	          0.00000000	
1.956	         -3.01355500	         12.76529400	         -5.43086800	          1.06534100	          0.00000000	         -0.30208800	          0.00000000	          0.00000000	          0.00000000	          0.00000000	          0.00000000	          0.00000000	         -0.00000000	          1.38034900	         -0.00000000	          0.00000000	          0.00000000	          0.00000000	
1.957	         -3.41483800	         14.98947800	         -5.99568100	          1.06081800	          0.00000000	         -0.30407900	          0.00000000	          0.00000000	          0.00000000	          0.00000000	          0.00000000	          0.00000000	         -0.00000000	          1.58359000	         -0.00000000	          0.00000000	          0.00000000	          0.00000000	
1.958	         -3.86265900	         17.55118400	         -6.60031700	          1.05721000	          0.00000000	         -0.30578200	          0.00000000	          0.00000000	          0.00000000	          0.00000000	          0.00000000	          0.00000000	         -0.00000000	          1.79140100	         -0.00000000	          0.00000000	          0.00000000	          0.00000000	
1.959	         -4.35706400	         20.49078400	         -7.24554500	          1.05433900	          0.00000000	         -0.30723800	          0.00000000	          0.00000000	          0.00000000	          0.00000000	          0.00000000	          0.00000000	         -0.00000000	          2.00322100	         -0.00000000	          0.00000000	          0.00000000	          0.00000000	
1.96	         -4.89711900	         23.85155900	         -7.93189400	          1.05206200	          0.00000000	         -0.30848400	          0.00000000	          0.00000000	          0.00000000	          0.00000000	          0.00000000	          0.00000000	         -0.00000000	          2.21845500	         -0.00000000	          0.00000000	          0.00000000	          0.00000000	
1.961	         -5.48076800	         27.67957300	         -8.65961600	          1.05025900	          0.00000000	         -0.30955400	          0.00000000	          0.00000000	          0.00000000	          0.00000000	          0.00000000	          0.00000000	         -0.00000000	          2.43647300	         -0.00000000	          0.00000000	          0.00000000	          0.00000000	
1.962	         -6.10470300	         32.02350200	         -9.42865200	          1.04883600	          0.00000000	         -0.31047700	          0.00000000	          0.00000000	          0.00000000	          0.00000000	          0.00000000	          0.00000000	         -0.00000000	          2.65661400	         -0.00000000	          0.00000000	          0.00000000	          0.00000000	
1.963	         -6.76424100	         36.93439100	        -10.23858100	          1.04771400	          0.00000000	         -0.31128000	          0.00000000	          0.00000000	          0.00000000	          0.00000000	          0.00000000	          0.00000000	         -0.00000000	          2.87818600	         -0.00000000	          0.00000000	          0.00000000	          0.00000000	
1.964	         -7.45324100	         42.46538500	        -11.08859300	          1.04683100	          0.00000000	         -0.31198500	          0.00000000	          0.00000000	          0.00000000	          0.00000000	          0.00000000	          0.00000000	         -0.00000000	          3.10047100	         -0.00000000	          0.00000000	          0.00000000	          0.00000000	
1.965	         -8.16404400	         48.67136000	        -11.97744000	          1.04613500	          0.00000000	         -0.31261100	          0.00000000	          0.00000000	          0.00000000	          0.00000000	          0.00000000	          0.00000000	         -0.00000000	          3.32272500	         -0.00000000	          0.00000000	          0.00000000	          0.00000000	
1.966	         -8.88746500	         55.60852800	        -12.90339200	          1.04558100	          0.00000000	         -0.31317600	          0.00000000	          0.00000000	          0.00000000	          0.00000000	          0.00000000	          0.00000000	         -0.00000000	          3.54418500	         -0.00000000	          0.00000000	          0.00000000	          0.00000000	
1.967	         -9.61283700	         63.33400300	        -13.86420700	          1.04513600	          0.00000000	         -0.31369200	          0.00000000	          0.00000000	          0.00000000	          0.00000000	          0.00000000	          0.00000000	         -0.00000000	          3.76406600	         -0.00000000	          0.00000000	          0.00000000	          0.00000000	
1.968	        -10.32812600	         71.90526600	        -14.85708200	          1.04477000	          0.00000000	         -0.31417300	          0.00000000	          0.00000000	          0.00000000	          0.00000000	          0.00000000	          0.00000000	         -0.00000000	          3.98156700	         -0.00000000	          0.00000000	          0.00000000	          0.00000000	
1.969	        -11.02010900	         81.37963100	        -15.87862800	          1.04445800	          0.00000000	         -0.31462800	          0.00000000	          0.00000000	          0.00000000	          0.00000000	          0.00000000	          0.00000000	         -0.00000000	          4.19587900	         -0.00000000	          0.00000000	          0.00000000	          0.00000000	
1.97	        -11.67464100	         91.81361400	        -16.92482600	          1.04417800	          0.00000000	         -0.31506400	          0.00000000	          0.00000000	          0.00000000	          0.00000000	          0.00000000	          0.00000000	         -0.00000000	          4.40617900	         -0.00000000	          0.00000000	          0.00000000	          0.00000000	
1.971	        -12.27698800	        103.26228300	        -17.99101600	          1.04391500	          0.00000000	         -0.31549000	          0.00000000	          0.00000000	          0.00000000	          0.00000000	          0.00000000	          0.00000000	         -0.00000000	          4.61164600	         -0.00000000	          0.00000000	          0.00000000	          0.00000000	
1.972	        -12.81225600	        115.77854900	        -19.07186300	          1.04365300	          0.00000000	         -0.31590900	          0.00000000	          0.00000000	          0.00000000	          0.00000000	          0.00000000	          0.00000000	         -0.00000000	          4.81145200	         -0.00000000	          0.00000000	          0.00000000	          0.00000000	
1.973	        -13.26586900	        129.41235400	        -20.16135400	          1.04337900	          0.00000000	         -0.31632600	          0.00000000	          0.00000000	          0.00000000	          0.00000000	          0.00000000	          0.00000000	         -0.00000000	          5.00477700	         -0.00000000	          0.00000000	          0.00000000	          0.00000000	
1.974	        -13.62412000	        144.20986900	        -21.25278900	          1.04308400	          0.00000000	         -0.31674500	          0.00000000	          0.00000000	          0.00000000	          0.00000000	          0.00000000	          0.00000000	         -0.00000000	          5.19080700	         -0.00000000	          0.00000000	          0.00000000	          0.00000000	
1.975	        -13.87474900	        160.21250900	        -22.33879100	          1.04275800	          0.00000000	         -0.31716700	          0.00000000	          0.00000000	          0.00000000	          0.00000000	          0.00000000	          0.00000000	         -0.00000000	          5.36874200	         -0.00000000	          0.00000000	          0.00000000	          0.00000000	
1.976	        -14.00754800	        177.45605500	        -23.41132200	          1.04239600	          0.00000000	         -0.31759500	          0.00000000	          0.00000000	          0.00000000	          0.00000000	          0.00000000	          0.00000000	         -0.00000000	          5.53779600	         -0.00000000	          0.00000000	          0.00000000	          0.00000000	
